<?xml version="1.0" encoding="UTF-8"?>
<svg version="1.1" xmlns="http://www.w3.org/2000/svg" width="1536" height="1537">
<path d="M0 0 C16.10926066 4.89572321 30.99643024 12.48082975 46 20 C46.92167969 20.45955078 47.84335937 20.91910156 48.79296875 21.39257812 C75.92987453 35.00363212 101.60351759 51.97858448 126 70 C126.94166016 70.69488525 126.94166016 70.69488525 127.90234375 71.40380859 C140.89161926 81.01599907 153.63003528 90.8823135 165.9140625 101.3828125 C168.75605565 103.80691756 171.65290065 106.15731399 174.5625 108.5 C179.63671302 112.62742109 184.43819967 117.00319629 189.234375 121.4453125 C193.72363306 125.59216952 198.30285345 129.60724489 203.02734375 133.484375 C254.72960952 176.02314976 269.02775875 251.92658377 275.21746826 315.22387695 C277.22740887 336.43749536 278.66897441 357.69022756 279 379 C279.01095703 379.68032288 279.02191406 380.36064575 279.03320312 381.06158447 C280.56227536 480.1561462 268.48759566 579.88125611 154.97070312 941.90106201 C154.00022178 943.99952045 153.03297112 946.09944212 152.06640625 948.19970703 C139.13179074 976.27678033 125.42660865 1003.96103025 109.9921875 1030.7578125 C107.47937795 1035.12643491 105.07479486 1039.54467625 102.69677734 1043.98779297 C95.01235038 1058.32704261 86.55430588 1072.17000485 78 1086 C77.46938965 1086.86157715 76.9387793 1087.7231543 76.39208984 1088.61083984 C67.79393016 1102.54538696 58.71924386 1116.1771085 49.52900696 1129.72634888 C47.13362458 1133.27117181 44.83078164 1136.8535126 42.59765625 1140.50390625 C35.19297484 1152.26407092 26.48671439 1157.67759286 14.03710938 1163.54931641 C8.78523407 1166.057889 3.65393014 1168.79753338 -1.5 1171.5 C-3.61963858 1172.59665012 -5.73942932 1173.69300617 -7.859375 1174.7890625 C-13.53367712 1177.73962872 -19.14824545 1180.78945019 -24.75 1183.875 C-33.02094878 1188.41881634 -41.34325317 1192.85828391 -49.71179199 1197.21929932 C-51.02206259 1197.90285012 -52.33124114 1198.58849857 -53.63928223 1199.27630615 C-55.46860837 1200.2372798 -57.30197245 1201.1900498 -59.13671875 1202.140625 C-60.19592529 1202.69266602 -61.25513184 1203.24470703 -62.34643555 1203.81347656 C-65 1205 -65 1205 -68 1205 C-56.49277978 1194.3941787 -56.49277978 1194.3941787 -51.875 1190.375 C-51.24464844 1189.82585937 -50.61429688 1189.27671875 -49.96484375 1188.7109375 C-48.58252343 1187.50724704 -47.19966173 1186.30417817 -45.81640625 1185.1015625 C-40.47527015 1180.38312043 -35.36068926 1175.46513525 -30.3125 1170.4375 C-29.6949585 1169.82455078 -29.07741699 1169.21160156 -28.44116211 1168.58007812 C-24.09317451 1164.21757207 -20.00154956 1159.68096087 -16 1155 C-15.46012451 1154.372146 -14.92024902 1153.74429199 -14.36401367 1153.09741211 C4.26863562 1131.28200154 19.53959854 1107.28813967 33 1082 C33.42748535 1081.1970752 33.8549707 1080.39415039 34.29541016 1079.56689453 C78.88077923 994.97197974 98.33434114 897.26914313 135.375 636.9375 C135.44885925 636.1906192 135.52271851 635.4437384 135.59881592 634.67422485 C136.14057471 629.12131464 136.58908087 623.56403549 137 618 C137.08506805 616.86857574 137.17013611 615.73715149 137.25778198 614.57144165 C138.99243821 590.78508594 139.3644531 567.05938069 139.31805801 543.21547699 C139.31241063 540.26582281 139.30959452 537.31617439 139.30697632 534.36651611 C139.27087586 506.37892282 138.94406521 478.52089258 136.25323486 450.64080811 C135.98649127 447.859127 135.7324486 445.07646826 135.47998047 442.29345703 C130.02427883 382.78793739 119.71622933 323.90607775 105 266 C104.80210876 265.21917053 104.60421753 264.43834106 104.40032959 263.6338501 C88.22951109 199.99897886 66.5179871 137.62925225 39 78 C38.39081771 76.67054555 37.78194432 75.34094953 37.17333984 74.01123047 C26.2531479 50.18617726 14.60370562 26.8308753 1.22265625 4.2734375 C0 2 0 2 0 0 Z " fill="#FEBA12" transform="translate(698,179)"/>
<path d="M0 0 C0.66 0 1.32 0 2 0 C3.35382149 1.48738235 4.63139886 3.04430551 5.875 4.625 C8.93500081 8.45733328 12.03447936 12.22257706 15.25976562 15.91650391 C21.36495538 22.91586791 27.05241945 30.17187381 32.6484375 37.58203125 C35.46967422 41.31689807 38.34385425 45.00698956 41.23486328 48.68798828 C48.75654761 58.27371434 55.9582174 68.05744191 63 78 C63.85875732 79.21091309 63.85875732 79.21091309 64.73486328 80.44628906 C73.02879352 92.16263876 81.12338007 103.99922342 89 116 C89.44375977 116.67530762 89.88751953 117.35061523 90.34472656 118.04638672 C103.44564203 138.02746468 115.97510627 158.35499823 128 179 C128.59280762 180.01288086 129.18561523 181.02576172 129.79638672 182.06933594 C147.1261478 211.69543105 163.03776782 242.06848794 178.45172119 272.72821045 C179.13680659 274.09036365 179.82307654 275.45192191 180.51068115 276.81280518 C182.41131648 280.57838812 184.28423282 284.35541255 186.11230469 288.15679932 C186.71038585 289.39864839 187.31402581 290.63783377 187.92285156 291.87445068 C191.49052786 299.17793241 194.17979306 304.91001345 192 313 C191.75040527 314.1024707 191.50081055 315.20494141 191.24365234 316.34082031 C190.28816396 320.45378022 189.25136305 324.53906288 188.1875 328.625 C187.99225739 329.38032013 187.79701477 330.13564026 187.59585571 330.91384888 C180.21171659 359.36980869 171.07854947 387.33219198 161.64903259 415.16671753 C159.66857618 421.01302109 157.7046151 426.86469698 155.74604797 432.71836853 C129.91325406 509.88150134 101.03977087 586.96361777 59.56591797 657.32128906 C57.81855986 660.31037749 56.11271319 663.32111526 54.41015625 666.3359375 C46.71491533 679.91859767 38.60093915 693.1228039 29.93115234 706.10400391 C27.9283295 709.10747857 25.9415771 712.12114117 23.95703125 715.13671875 C8.47871279 738.59763608 -7.98813709 761.40683101 -26 783 C-27.50044767 784.85380442 -29.00043675 786.70798009 -30.5 788.5625 C-34.17210966 793.05347732 -37.98546062 797.38683347 -41.890625 801.67578125 C-43.74626657 803.72042335 -45.56756376 805.78784149 -47.375 807.875 C-55.56828149 817.25903508 -64.09938348 826.28603828 -72.90673828 835.09204102 C-74.50453893 836.69204519 -76.09411551 838.29993615 -77.68359375 839.90820312 C-84.13059762 846.3910982 -90.79826155 852.34874057 -98 858 C-98.75716309 858.62463135 -99.51432617 859.2492627 -100.29443359 859.89282227 C-105.86907135 864.42523437 -111.76577013 867.80959336 -118.125 871.125 C-120.27445248 872.2663197 -122.42286637 873.40959722 -124.5703125 874.5546875 C-125.64958008 875.12928711 -126.72884766 875.70388672 -127.84082031 876.29589844 C-132.60694618 878.86680714 -137.3017347 881.55771674 -142 884.25 C-151.91406434 889.90898194 -161.97354795 895.26614866 -172.06893921 900.59133911 C-182.82565544 906.26890681 -193.46409241 912.12235944 -204.01953125 918.16796875 C-207.67295055 920.25239909 -211.33440331 922.3212573 -215.01171875 924.36328125 C-216.37043091 925.11992065 -216.37043091 925.11992065 -217.7565918 925.8918457 C-220 927 -220 927 -222 927 C-220.44536271 923.68084938 -218.54929656 920.72365044 -216.5 917.6875 C-215.78457031 916.62273438 -215.06914063 915.55796875 -214.33203125 914.4609375 C-213.760896 913.61354004 -213.760896 913.61354004 -213.17822266 912.74902344 C-188.9418088 876.77105641 -166.24938833 839.81875595 -145 802 C-144.58524414 801.26281738 -144.17048828 800.52563477 -143.74316406 799.76611328 C-140.80045247 794.52622563 -137.89161931 789.26823488 -135 784 C-134.51982422 783.12601563 -134.03964844 782.25203125 -133.54492188 781.3515625 C-124.75569786 765.32217311 -116.26372797 749.14477064 -107.95178223 732.8638916 C-107.32043619 731.62751573 -106.68852451 730.39142853 -106.05603027 729.15563965 C-96.75504824 710.98254279 -88.00985289 692.60962381 -79.67970276 673.97164917 C-77.74759793 669.65168645 -75.78500353 665.34715051 -73.80078125 661.05078125 C-46.09809892 600.7656462 -23.27363882 537.29251662 -6.54705811 473.09570312 C-6.004465 471.01710477 -5.45620606 468.94007176 -4.90673828 466.86328125 C17.80824343 380.73786771 36.35910178 290.27165668 39 195 C39.03287109 193.4516748 39.03287109 193.4516748 39.06640625 191.87207031 C40.23753178 127.7529474 30.74889641 62.14418812 1.23828125 4.5625 C0 2 0 2 0 0 Z " fill="#FEBA12" transform="translate(980,398)"/>
<path d="M0 0 C1.33504074 0.00273422 1.33504074 0.00273422 2.697052 0.00552368 C26.61817093 0.0875304 49.56204404 3.25949072 72.9375 8.3125 C73.60558685 8.42261917 74.27367371 8.53273834 74.96200562 8.64619446 C77.93450519 9.64877536 78.65968312 11.88790348 80.03147888 14.55497742 C80.3974971 15.30124893 80.76351532 16.04752045 81.140625 16.81640625 C81.53536514 17.59341385 81.93010529 18.37042145 82.33680725 19.17097473 C83.63388674 21.73241507 84.91084178 24.30332842 86.1875 26.875 C87.08636673 28.66218333 87.98636177 30.44879958 88.88745117 32.23486328 C90.7150205 35.86291593 92.53436493 39.4949187 94.34716797 43.13037109 C96.63714771 47.71972309 98.95554221 52.29395524 101.28515625 56.86328125 C110.04033859 74.07812181 118.2259636 91.5130657 126.08300781 109.15478516 C127.31257463 111.91536254 128.54881669 114.67277044 129.79199219 117.42724609 C145.30331056 151.79664181 159.19515039 186.82589432 171.9375 222.3125 C172.19017639 223.01489807 172.44285278 223.71729614 172.70318604 224.440979 C216.14614317 345.42123417 216.14614317 345.42123417 214.9375 399.3125 C211.90023042 397.94639732 209.72834974 396.38176193 207.328125 394.08203125 C206.65523437 393.44330078 205.98234375 392.80457031 205.2890625 392.14648438 C204.24878906 391.14584961 204.24878906 391.14584961 203.1875 390.125 C197.87850912 385.05319787 192.50425404 380.10088233 186.9375 375.3125 C186.37691895 374.82982666 185.81633789 374.34715332 185.23876953 373.84985352 C183.6197404 372.45977553 181.99781909 371.07315082 180.375 369.6875 C175.9539511 365.90793426 171.54963 362.11036796 167.16333008 358.29052734 C160.51835678 352.50617008 153.78726394 346.85411354 146.9375 341.3125 C145.16636284 339.85453568 143.39553572 338.39619464 141.625 336.9375 C135.78152482 332.1587258 129.85397126 327.4926675 123.90332031 322.84863281 C121.83632862 321.23344259 119.77359217 319.61291162 117.7109375 317.9921875 C107.69864219 310.143186 97.55041378 302.50225724 87.26806641 295.01074219 C85.01319884 293.3676604 82.76240633 291.71911279 80.51171875 290.0703125 C39.62919733 260.22443073 -3.37893722 233.09291424 -48.0625 209.3125 C-49.08649902 208.76625977 -50.11049805 208.22001953 -51.16552734 207.65722656 C-86.32502868 188.9715798 -122.36890176 173.22247471 -160.0625 160.3125 C-161.07924805 159.9609082 -162.09599609 159.60931641 -163.14355469 159.24707031 C-180.30618788 153.3571026 -197.78846664 148.93455715 -215.41897583 144.70707703 C-219.66967132 143.68144694 -223.86647999 142.53840269 -228.0625 141.3125 C-222.49909624 120.17156572 -204.68885999 100.53627268 -190.31640625 84.7890625 C-188.7882804 83.10997795 -187.27564142 81.41669177 -185.77734375 79.7109375 C-181.7844131 75.17694077 -177.75245801 70.96097249 -173.12890625 67.0703125 C-170.87503016 65.1530266 -168.72757153 63.14187799 -166.5625 61.125 C-149.82088139 46.11089287 -130.4099903 33.69773741 -110.03271484 24.23193359 C-108.00705742 23.2866268 -105.99846958 22.3097419 -103.98828125 21.33203125 C-87.20661944 13.3449958 -69.30379457 8.14517565 -51.125 4.4375 C-49.72689087 4.15096558 -49.72689087 4.15096558 -48.30053711 3.85864258 C-32.30051069 0.8127945 -16.25458578 -0.069818 0 0 Z " fill="#000000" transform="translate(581.0625,152.6875)"/>
<path d="M0 0 C2.75598511 2.39627215 3.90542684 4.70506117 5.2421875 8.08203125 C5.66145508 9.13777344 6.08072266 10.19351563 6.51269531 11.28125 C6.96225586 12.4465625 7.41181641 13.611875 7.875 14.8125 C8.11198608 15.42399902 8.34897217 16.03549805 8.59313965 16.66552734 C18.71170802 42.83822132 27.30326937 69.41265073 35.0625 96.375 C35.38214722 97.48560791 35.70179443 98.59621582 36.03112793 99.74047852 C37.80375818 105.9205132 39.54814736 112.10755191 41.25518799 118.30603027 C41.73165247 120.0293925 42.21337084 121.75131624 42.70184326 123.47131348 C46.9312921 138.38524886 45.47201915 146.02553923 39.125 160.125 C38.53206388 161.46328945 37.93970473 162.80183468 37.34790039 164.140625 C35.58826527 168.10430088 33.79993506 172.05448406 32 176 C31.50580566 177.0837793 31.01161133 178.16755859 30.50244141 179.28417969 C9.76855467 224.36671865 -17.06230109 267.0126687 -49 305 C-49.43602539 305.52094238 -49.87205078 306.04188477 -50.32128906 306.57861328 C-63.1101978 321.82487662 -76.54937369 337.0687284 -91.71875 350 C-94.19309966 352.16929285 -96.58961272 354.40914746 -98.98803711 356.66162109 C-104.63544726 361.96518385 -110.36706634 367.04068124 -116.41796875 371.88671875 C-119.04421768 374.03619026 -121.55633453 376.27460088 -124.0625 378.5625 C-127.96766996 382.11321008 -131.97920566 385.45393696 -136.125 388.71875 C-138.30830911 390.45115832 -140.47172503 392.19966932 -142.625 393.96875 C-149.91767735 399.95631706 -157.28637841 405.79112546 -164.86450195 411.41357422 C-169.90701517 415.15986025 -174.86851879 418.99987169 -179.8125 422.875 C-189.06762706 430.1111168 -198.50193396 437.08708907 -208 444 C-208.74749512 444.5451123 -209.49499023 445.09022461 -210.26513672 445.65185547 C-222.0705938 454.25338023 -234.00217315 462.66928302 -246 471 C-247.06347656 471.73863281 -247.06347656 471.73863281 -248.1484375 472.4921875 C-258.6775158 479.79396211 -269.32037406 486.92064601 -280 494 C-280 491 -280 491 -278.55053711 489.22583008 C-277.8828833 488.58025146 -277.21522949 487.93467285 -276.52734375 487.26953125 C-275.79193359 486.54830078 -275.05652344 485.82707031 -274.29882812 485.08398438 C-273.51958984 484.33439453 -272.74035156 483.58480469 -271.9375 482.8125 C-266.96055601 477.98055695 -262.12883299 473.13112304 -257.6105957 467.86450195 C-255.19297742 465.06575239 -252.65491536 462.38431654 -250.125 459.6875 C-245.60690661 454.83650931 -241.35301793 449.84040724 -237.203125 444.66796875 C-234.93072182 441.91610462 -232.55305169 439.30261857 -230.125 436.6875 C-225.88202961 432.07728643 -222.00123337 427.28073042 -218.17407227 422.32836914 C-215.07490442 418.3296006 -211.86646764 414.45554119 -208.5625 410.625 C-204.03380925 405.34850376 -199.82730945 399.87949566 -195.69165039 394.29125977 C-192.45220769 389.91819378 -189.14644444 385.60734682 -185.7824707 381.3293457 C-179.08501908 372.81190448 -172.7175023 364.12390124 -166.54492188 355.22021484 C-164.94180296 352.91636475 -163.32423904 350.6232499 -161.703125 348.33203125 C-132.01272301 306.30452159 -105.08496183 262.47280024 -81 217 C-80.11876465 215.34025146 -80.11876465 215.34025146 -79.21972656 213.64697266 C-63.46030254 183.86660439 -49.54838468 153.43254913 -36.89642334 122.2088623 C-36.01481534 120.03650625 -35.1284111 117.86616662 -34.24072266 115.69628906 C-18.85788763 78.03496827 -7.82276841 39.9421352 0 0 Z " fill="#FEBA12" transform="translate(1193,753)"/>
</svg>
